<svg width="20" height="21" viewBox="0 0 20 21" fill="none" xmlns="http://www.w3.org/2000/svg">
<path d="M17.1464 3.73416C16.2522 2.83113 15.1884 2.11368 14.0161 1.62301C12.8438 1.13235 11.5861 0.878157 10.3152 0.875029C9.0444 0.871901 7.78547 1.1199 6.61077 1.60479C5.43607 2.08967 4.36875 2.80188 3.47013 3.7005C2.57151 4.59913 1.8593 5.66644 1.37441 6.84115C0.889526 8.01585 0.641524 9.27478 0.644652 10.5456C0.64778 11.8165 0.901976 13.0742 1.39264 14.2465C1.8833 15.4188 2.60075 16.4826 3.50379 17.3767C4.39797 18.2798 5.46178 18.9972 6.63408 19.4879C7.80638 19.9786 9.06407 20.2327 10.3349 20.2359C11.6057 20.239 12.8647 19.991 14.0394 19.5061C15.2141 19.0212 16.2814 18.309 17.18 17.4104C18.0786 16.5118 18.7909 15.4445 19.2757 14.2698C19.7606 13.0951 20.0086 11.8361 20.0055 10.5653C20.0024 9.29445 19.7482 8.03675 19.2575 6.86445C18.7669 5.69215 18.0494 4.62835 17.1464 3.73416ZM2.05633 10.5555C2.05602 9.82363 2.15305 9.09502 2.34487 8.38878C2.66098 9.06923 3.12007 9.65709 3.4323 10.3552C3.83583 11.2527 4.91938 11.0038 5.39785 11.7902C5.82248 12.4883 5.36899 13.3711 5.68682 14.1015C5.91766 14.6317 6.46202 14.7475 6.83756 15.1351C7.22128 15.5262 7.2131 16.0619 7.27167 16.5718C7.33776 17.1709 7.44496 17.7648 7.59251 18.3492C7.59251 18.3535 7.59251 18.3582 7.59596 18.3625C4.3733 17.2307 2.05633 14.1588 2.05633 10.5555ZM10.3251 18.8242C9.86329 18.8241 9.40233 18.7855 8.94695 18.7088C8.95169 18.5921 8.95384 18.4831 8.96547 18.4073C9.07012 17.7226 9.41293 17.0529 9.87546 16.5404C10.3324 16.0348 10.9586 15.6928 11.3445 15.1192C11.7226 14.5593 11.8358 13.8057 11.6799 13.1515C11.4504 12.1851 10.1373 11.8625 9.42929 11.3384C9.02232 11.0369 8.66013 10.571 8.12567 10.5331C7.87933 10.5158 7.67305 10.5688 7.42886 10.5059C7.20492 10.4478 7.0292 10.3272 6.79062 10.3586C6.34488 10.4172 6.06365 10.8935 5.58476 10.8289C5.13041 10.7682 4.66227 10.2363 4.55891 9.80351C4.42627 9.2471 4.86641 9.06665 5.33799 9.01712C5.5348 8.99645 5.75573 8.97405 5.94479 9.04641C6.19372 9.13857 6.31129 9.38232 6.5348 9.50549C6.95384 9.73547 7.03868 9.36811 6.97451 8.99602C6.87847 8.43874 6.7665 8.21178 7.26349 7.82806C7.60802 7.56363 7.90259 7.37242 7.84747 6.89739C7.81474 6.61832 7.66185 6.49214 7.8044 6.21436C7.9125 6.0029 8.20922 5.81212 8.40259 5.68593C8.90173 5.36035 10.5408 5.38447 9.87116 4.47318C9.67434 4.20574 9.31129 3.72771 8.96676 3.66224C8.5361 3.58085 8.34488 4.06147 8.04471 4.27336C7.73463 4.49256 7.13084 4.74149 6.82033 4.40256C6.40259 3.94648 7.09725 3.79704 7.251 3.47835C7.32206 3.32977 7.251 3.12348 7.13127 2.92925C7.2866 2.86379 7.44451 2.80307 7.605 2.74708C7.70558 2.82137 7.8249 2.86612 7.94953 2.87628C8.23765 2.89523 8.5094 2.73933 8.7609 2.93571C9.03997 3.15105 9.24109 3.42323 9.61147 3.49041C9.96978 3.55544 10.3492 3.34657 10.4379 2.97964C10.4917 2.75656 10.4379 2.52098 10.3862 2.29058C11.9969 2.29985 13.5694 2.78222 14.9082 3.67775C14.8221 3.64502 14.7191 3.64889 14.5921 3.70789C14.3307 3.82934 13.9603 4.13856 13.9297 4.44519C13.8949 4.79317 14.4082 4.84226 14.652 4.84226C15.018 4.84226 15.3888 4.67861 15.2708 4.2557C15.2196 4.07224 15.1498 3.88145 15.0374 3.76603C15.3076 3.95353 15.5665 4.15687 15.8126 4.37499C15.8087 4.37887 15.8048 4.38231 15.801 4.38662C15.5529 4.64502 15.2648 4.84959 15.0951 5.16397C14.9754 5.38533 14.8406 5.49041 14.5981 5.54769C14.4646 5.57913 14.3122 5.59076 14.2002 5.68034C13.8884 5.92581 14.0658 6.51582 14.3613 6.69283C14.7346 6.91634 15.2885 6.81126 15.5701 6.49214C15.7902 6.24235 15.9198 5.80867 16.3156 5.8091C16.4899 5.80874 16.6572 5.87697 16.7816 5.99903C16.9452 6.16871 16.9129 6.32719 16.9478 6.53908C17.0094 6.91548 17.3415 6.71135 17.5434 6.52142C17.6907 6.78345 17.8235 7.0533 17.9414 7.32978C17.7191 7.64976 17.5426 7.9986 17.0081 7.62565C16.6881 7.40213 16.4913 7.07784 16.0895 6.97707C15.7385 6.89093 15.3789 6.98051 15.0322 7.04037C14.6382 7.10885 14.1709 7.13899 13.872 7.43745C13.583 7.72513 13.4302 8.11014 13.1227 8.39912C12.5279 8.95898 12.2768 9.57009 12.6619 10.3617C13.0322 11.1226 13.807 11.5356 14.6429 11.4814C15.4642 11.4267 16.3173 10.9504 16.2937 12.1437C16.285 12.5662 16.3733 12.8586 16.503 13.251C16.6231 13.6127 16.6149 13.9633 16.6425 14.3367C16.6687 14.7739 16.7371 15.2076 16.8466 15.6317C16.0747 16.6256 15.0858 17.4299 13.9556 17.9832C12.8253 18.5365 11.5835 18.8242 10.3251 18.8242Z" fill="#6C6C6C"/>
</svg>
