<svg width="20" height="21" fill="none" xmlns="http://www.w3.org/2000/svg"><path d="M17.146 3.734A9.647 9.647 0 103.504 17.377 9.647 9.647 0 1017.146 3.734zm-15.09 6.822c0-.732.097-1.461.289-2.167.316.68.775 1.268 1.087 1.966.404.898 1.487.649 1.966 1.435.424.698-.029 1.581.289 2.312.23.53.775.646 1.15 1.033.384.391.376.927.435 1.437a13.152 13.152 0 00.324 1.79c-3.223-1.131-5.54-4.203-5.54-7.806zm8.27 8.268a8.39 8.39 0 01-1.38-.115c.006-.117.008-.226.02-.302.104-.684.447-1.354.91-1.867.456-.505 1.083-.847 1.469-1.42.378-.56.49-1.314.335-1.968-.23-.967-1.543-1.29-2.25-1.814-.408-.301-.77-.767-1.304-.805-.247-.017-.453.036-.697-.027-.224-.058-.4-.179-.638-.147-.446.058-.727.534-1.206.47-.455-.06-.923-.593-1.026-1.025-.133-.557.307-.737.779-.787.197-.02.418-.043.607.03.249.092.366.335.59.458.419.23.504-.137.44-.509-.097-.557-.208-.784.288-1.168.345-.264.64-.456.584-.93-.032-.28-.185-.406-.043-.684.108-.211.405-.402.599-.528.499-.326 2.138-.302 1.468-1.213-.197-.267-.56-.745-.904-.81-.43-.082-.622.398-.922.61-.31.22-.914.468-1.225.13-.417-.457.277-.606.431-.925.071-.148 0-.355-.12-.549.156-.065.314-.126.474-.182.1.074.22.12.345.13.288.018.56-.138.81.059.28.215.481.487.851.554.359.065.738-.143.827-.51.054-.223 0-.459-.052-.69 1.61.01 3.183.492 4.522 1.388-.086-.033-.189-.03-.316.03-.261.121-.632.43-.662.737-.035.348.478.397.722.397.366 0 .737-.163.619-.586-.051-.184-.121-.375-.234-.49.27.188.53.39.776.609l-.012.012c-.248.258-.536.463-.706.777a.68.68 0 01-.497.384c-.133.031-.286.043-.398.132-.312.246-.134.836.161 1.013.374.223.928.118 1.21-.2.22-.25.349-.684.745-.684.174 0 .341.068.466.19.163.17.13.328.166.54.061.376.393.172.595-.018.148.262.28.532.398.809-.222.32-.398.669-.933.296-.32-.224-.517-.548-.918-.649-.351-.086-.711.004-1.058.063-.394.069-.861.099-1.16.397-.289.288-.442.673-.75.962-.594.56-.845 1.171-.46 1.963.37.76 1.145 1.174 1.98 1.12.822-.055 1.675-.532 1.652.662-.009.422.08.715.209 1.107.12.362.112.712.14 1.086.026.437.094.87.204 1.295a8.258 8.258 0 01-6.522 3.192z" fill="#6C6C6C"/></svg>